HIERARCHY
ROOT hip
{
  OFFSET 0 0 0
  CHANNELS 6 Xposition Yposition Zposition Zrotation Yrotation Xrotation
  JOINT abdomen
  {
    OFFSET 0 20.6881 -0.73152
    CHANNELS 3 Zrotation Xrotation Yrotation
    JOINT chest
    {
      OFFSET 0 11.7043 -0.48768
      CHANNELS 3 Zrotation Xrotation Yrotation
      JOINT neck
      {
        OFFSET 0 22.1894 -2.19456
        CHANNELS 3 Zrotation Xrotation Yrotation
        JOINT head
        {
          OFFSET -0.24384 7.07133 1.2192
          CHANNELS 3 Zrotation Xrotation Yrotation
          JOINT leftEye
          {
            OFFSET 4.14528 8.04674 8.04672
            CHANNELS 3 Zrotation Xrotation Yrotation
            End Site
            {
              OFFSET 1 0 0
            }
          }
          JOINT rightEye
          {
            OFFSET -3.6576 8.04674 8.04672
            CHANNELS 3 Zrotation Xrotation Yrotation
            End Site
            {
              OFFSET 1 0 0
            }
          }
        }
      }
      JOINT rCollar
      {
        OFFSET -2.68224 19.2634 -4.8768
        CHANNELS 3 Zrotation Xrotation Yrotation
        JOINT rShldr
        {
          OFFSET -8.77824 -1.95073 1.46304
          CHANNELS 3 Zrotation Xrotation Yrotation
          JOINT rForeArm
          {
            OFFSET -28.1742 -1.7115 0.48768
            CHANNELS 3 Zrotation Xrotation Yrotation
            JOINT rHand
            {
              OFFSET -22.5879 0.773209 7.07136
              CHANNELS 3 Zrotation Xrotation Yrotation
              JOINT rThumb1
              {
                OFFSET -1.2192 -0.487915 3.41376
                CHANNELS 3 Zrotation Xrotation Yrotation
                JOINT rThumb2
                {
                  OFFSET -3.37035 -0.52449 3.41376
                  CHANNELS 3 Zrotation Xrotation Yrotation
                  End Site
                  {
                    OFFSET -1.78271 -1.18214 1.43049
                  }
                }
              }
              JOINT rIndex1
              {
                OFFSET -7.75947 0.938293 5.60832
                CHANNELS 3 Zrotation Xrotation Yrotation
                JOINT rIndex2
                {
                  OFFSET -2.54057 -0.884171 1.56538
                  CHANNELS 3 Zrotation Xrotation Yrotation
                  End Site
                  {
                    OFFSET -1.62519 -0.234802 1.16502
                  }
                }
              }
              JOINT rMid1
              {
                OFFSET -8.24714 1.18213 3.41376
                CHANNELS 3 Zrotation Xrotation Yrotation
                JOINT rMid2
                {
                  OFFSET -3.10165 -0.590103 1.0647
                  CHANNELS 3 Zrotation Xrotation Yrotation
                  End Site
                  {
                    OFFSET -2.48547 -0.328903 0.83742
                  }
                }
              }
              JOINT rRing1
              {
                OFFSET -8.82822 0.546677 1.51678
                CHANNELS 3 Zrotation Xrotation Yrotation
                JOINT rRing2
                {
                  OFFSET -2.60934 -0.819778 -0.0198488
                  CHANNELS 3 Zrotation Xrotation Yrotation
                  End Site
                  {
                    OFFSET -2.33842 -0.294052 0.168128
                  }
                }
              }
              JOINT rPinky1
              {
                OFFSET -8.27202 -0.0477905 -0.4584
                CHANNELS 3 Zrotation Xrotation Yrotation
                JOINT rPinky2
                {
                  OFFSET -1.82734 -0.647385 -0.700984
                  CHANNELS 3 Zrotation Xrotation Yrotation
                  End Site
                  {
                    OFFSET -1.69225 -0.51767 -0.607171
                  }
                }
              }
            }
          }
        }
      }
      JOINT lCollar
      {
        OFFSET 2.68224 19.2634 -4.8768
        CHANNELS 3 Zrotation Xrotation Yrotation
        JOINT lShldr
        {
          OFFSET 8.77824 -1.95073 1.46304
          CHANNELS 3 Zrotation Xrotation Yrotation
          JOINT lForeArm
          {
            OFFSET 28.1742 -1.7115 0.48768
            CHANNELS 3 Zrotation Xrotation Yrotation
            JOINT lHand
            {
              OFFSET 22.5879 0.773209 7.07136
              CHANNELS 3 Zrotation Xrotation Yrotation
              JOINT lThumb1
              {
                OFFSET 1.2192 -0.487915 3.41376
                CHANNELS 3 Zrotation Xrotation Yrotation
                JOINT lThumb2
                {
                  OFFSET 3.37035 -0.52449 3.41376
                  CHANNELS 3 Zrotation Xrotation Yrotation
                  End Site
                  {
                    OFFSET 1.78271 -1.18214 1.43049
                  }
                }
              }
              JOINT lIndex1
              {
                OFFSET 7.75947 0.938293 5.60832
                CHANNELS 3 Zrotation Xrotation Yrotation
                JOINT lIndex2
                {
                  OFFSET 2.54057 -0.884171 1.56538
                  CHANNELS 3 Zrotation Xrotation Yrotation
                  End Site
                  {
                    OFFSET 1.62519 -0.234802 1.16502
                  }
                }
              }
              JOINT lMid1
              {
                OFFSET 8.24714 1.18213 3.41376
                CHANNELS 3 Zrotation Xrotation Yrotation
                JOINT lMid2
                {
                  OFFSET 3.10165 -0.590103 1.0647
                  CHANNELS 3 Zrotation Xrotation Yrotation
                  End Site
                  {
                    OFFSET 2.48547 -0.328903 0.83742
                  }
                }
              }
              JOINT lRing1
              {
                OFFSET 8.82822 0.546677 1.51678
                CHANNELS 3 Zrotation Xrotation Yrotation
                JOINT lRing2
                {
                  OFFSET 2.60934 -0.819778 -0.0198488
                  CHANNELS 3 Zrotation Xrotation Yrotation
                  End Site
                  {
                    OFFSET 2.33842 -0.294052 0.168128
                  }
                }
              }
              JOINT lPinky1
              {
                OFFSET 8.27202 -0.0477905 -0.4584
                CHANNELS 3 Zrotation Xrotation Yrotation
                JOINT lPinky2
                {
                  OFFSET 1.82734 -0.647385 -0.700984
                  CHANNELS 3 Zrotation Xrotation Yrotation
                  End Site
                  {
                    OFFSET 1.69225 -0.51767 -0.607171
                  }
                }
              }
            }
          }
        }
      }
    }
  }
  JOINT rButtock
  {
    OFFSET -8.77824 4.35084 1.2192
    CHANNELS 3 Zrotation Xrotation Yrotation
    JOINT rThigh
    {
      OFFSET 0 -1.70687 -2.19456
      CHANNELS 3 Zrotation Xrotation Yrotation
      JOINT rShin
      {
        OFFSET 0 -36.8199 0.73152
        CHANNELS 3 Zrotation Xrotation Yrotation
        JOINT rFoot
        {
          OFFSET 0.73152 -45.1104 -5.12064
          CHANNELS 3 Zrotation Xrotation Yrotation
          End Site
          {
            OFFSET -1.1221 -3.69964 12.103
          }
        }
      }
    }
  }
  JOINT lButtock
  {
    OFFSET 8.77824 4.35084 1.2192
    CHANNELS 3 Zrotation Xrotation Yrotation
    JOINT lThigh
    {
      OFFSET 0 -1.70687 -2.19456
      CHANNELS 3 Zrotation Xrotation Yrotation
      JOINT lShin
      {
        OFFSET 0 -36.8199 0.73152
        CHANNELS 3 Zrotation Xrotation Yrotation
        JOINT lFoot
        {
          OFFSET -0.73152 -45.1104 -5.12064
          CHANNELS 3 Zrotation Xrotation Yrotation
          End Site
          {
            OFFSET 1.1221 -3.69964 12.103
          }
        }
      }
    }
  }
}
MOTION
Frames:	4
Frame Time:	0.03333
-0.9523131397567816 33.38808543675962 5.864795995380587 3.921600341796875 19.432300567626953 5.28000020980835 -11.0989990234375 10.757899284362793 0.4835629463195801 5.597019672393799 -8.530111312866211 0.3487180173397064 -7.671509265899658 16.866100311279297 -8.59303092956543 12.516401290893555 -25.6653995513916 -14.16619873046875 -0.0 0.0 -0.0 -0.0 0.0 -0.0 -1.2722218027325094e-13 1.3994439830057603e-13 -2.544443605465019e-13 43.031192779541016 29.93339729309082 14.404699325561523 -28.039796829223633 -30.860200881958008 68.62950134277344 -0.027239898219704628 -4.706709384918213 -0.662990927696228 -4.5045556174017065e-10 -6.732610469128986e-09 1.8746124652579965e-09 -7.86004095143511e-10 -1.1670599597835007e-08 3.2369393831999105e-09 -4.5045556174017065e-10 -6.732610469128986e-09 1.8746124652579965e-09 7.7309088706970215 5.474880218505859 0.41731396317481995 -4.504683015493782e-10 -6.732623347716071e-09 1.8746124652579965e-09 2.9055399894714355 0.9651829600334167 0.10290198773145676 -4.504428496865387e-10 -6.732610469128986e-09 1.8746124652579965e-09 10.27859878540039 0.73180091381073 0.025912299752235413 -4.504683015493782e-10 -6.732623347716071e-09 1.8746189045515393e-09 2.2216696739196777 -0.7334870100021362 -0.2089199721813202 -1.2722218027325094e-13 1.3994439830057603e-13 -2.544443605465019e-13 -57.16969299316406 54.8151969909668 -19.849201202392578 27.96500015258789 -40.5994987487793 -84.99699401855469 1.2894896268844604 -30.439699172973633 4.737199306488037 -1.0059585386912318e-09 1.0826302521138587e-08 -2.0208670292731767e-09 -1.6918132450527423e-09 1.8086694808516768e-08 -3.510702395459475e-09 -1.0059711952337125e-09 1.0826302521138587e-08 -2.020860812024239e-09 -7.7309088706970215 5.474880218505859 -0.41731396317481995 -1.0059585386912318e-09 1.0826403773478432e-08 -2.0208670292731767e-09 -2.9055399894714355 0.9651829600334167 -0.10290198773145676 -1.0059711952337125e-09 1.0826403773478432e-08 -2.0208799078602624e-09 -10.27859878540039 0.73180091381073 -0.025912299752235413 -1.0059457711264486e-09 1.0826302521138587e-08 -2.020892564402743e-09 -2.2216696739196777 -0.7334870100021362 0.2089199721813202 -0.0 0.0 -0.0 -45.203102111816406 -59.64109802246094 -40.98320007324219 -1.9854499101638794 69.36239624023438 2.3642799854278564 1.9336098432540894 -4.309769630432129 11.699198722839355 -0.0 0.0 -0.0 10.488598823547363 1.89437997341156 4.944680213928223 0.04429659619927406 45.0746955871582 -2.945129632949829 16.544597625732422 -23.805500030517578 37.774898529052734
-0.9643452533590129 33.32127594139314 5.924383606236409 3.8036997318267822 19.591999053955078 5.20959997177124 -11.196298599243164 10.660600662231445 0.5007210373878479 5.624719619750977 -8.471739768981934 0.35245999693870544 -7.707779884338379 16.8164005279541 -8.612940788269043 12.596100807189941 -25.583600997924805 -14.190399169921875 -0.0 0.0 -0.0 -0.0 0.0 -0.0 -1.5266661632790113e-13 1.908332704098764e-13 -2.480832379803122e-13 43.249996185302734 30.06509780883789 14.199097633361816 -28.038198471069336 -30.850303649902344 68.61349487304688 -0.026473093777894974 -4.638669967651367 -0.6533649563789368 -6.558557585911728e-10 -8.024424680286302e-09 2.064179938088273e-09 -1.1422262025106988e-09 -1.390710213655666e-08 3.5639766693407182e-09 -6.558557585911728e-10 -8.024411357610006e-09 2.0641670595011874e-09 7.7309088706970215 5.474880218505859 0.41731396317481995 -6.558557585911728e-10 -8.024411357610006e-09 2.064179938088273e-09 2.9055399894714355 0.9651829600334167 0.10290198773145676 -6.558430465375409e-10 -8.024411357610006e-09 2.064179938088273e-09 10.27859878540039 0.73180091381073 0.025912299752235413 -6.558557585911728e-10 -8.024411357610006e-09 2.0641925946307538e-09 2.2216696739196777 -0.7334870100021362 -0.2089199721813202 -1.5266661632790113e-13 1.908332704098764e-13 -2.480832379803122e-13 -57.8129997253418 54.7848014831543 -19.27699851989746 27.96419906616211 -40.60389709472656 -85.00509643554688 1.3021399974822998 -30.570398330688477 4.762049674987793 -1.0974058328727665e-09 1.2767903179167206e-08 -2.397540166398926e-09 -1.8400143630969978e-09 2.1304499497887264e-08 -4.162760802728371e-09 -1.0974058328727665e-09 1.2767903179167206e-08 -2.3975275098564452e-09 -7.7309088706970215 5.474880218505859 -0.41731396317481995 -1.0974058328727665e-09 1.2767903179167206e-08 -2.397540166398926e-09 -2.9055399894714355 0.9651829600334167 -0.10290198773145676 -1.0974184894152472e-09 1.2767903179167206e-08 -2.3975528229414067e-09 -10.27859878540039 0.73180091381073 -0.025912299752235413 -1.0974058328727665e-09 1.2767903179167206e-08 -2.3975528229414067e-09 -2.2216696739196777 -0.7334870100021362 0.2089199721813202 -0.0 0.0 -0.0 -45.5735969543457 -59.59839630126953 -41.531700134277344 -2.0399701595306396 69.72040557861328 2.4091899394989014 1.9909101724624634 -4.4682698249816895 11.833699226379395 -0.0 0.0 -0.0 10.674599647521973 1.9835498332977295 4.832329750061035 0.043816279619932175 45.1482048034668 -2.957750082015991 16.64259910583496 -23.89150047302246 37.863800048828125
-0.9713353383247127 33.26346522025815 5.977668680045922 3.774799346923828 19.62769889831543 5.135500431060791 -11.299999237060547 10.618999481201172 0.5578620433807373 5.626159191131592 -8.436689376831055 0.3647259771823883 -7.756759166717529 16.765003204345703 -8.633350372314453 12.720399856567383 -25.538297653198242 -14.203200340270996 -0.0 0.0 -0.0 -0.0 0.0 -0.0 -2.5444436054650188e-14 1.0177774421860075e-13 1.2722218027325094e-13 43.46439743041992 30.170196533203125 14.013198852539062 -28.039997100830078 -30.857297897338867 68.6199951171875 -0.02700359746813774 -4.6854400634765625 -0.6599829196929932 -1.32379762707302e-09 -6.74198696870576e-09 2.189175646316599e-10 -2.2905208840739988e-09 -1.1650803877216731e-08 3.737978537809994e-10 -1.32379762707302e-09 -6.741974090118674e-09 2.1890483870024013e-10 7.7309088706970215 5.474880218505859 0.41731396317481995 -1.32379762707302e-09 -6.741974090118674e-09 2.189175646316599e-10 2.9055399894714355 0.9651829600334167 0.10290198773145676 -1.3237849705305393e-09 -6.741974090118674e-09 2.189175646316599e-10 10.27859878540039 0.73180091381073 0.025912299752235413 -1.3238103946378033e-09 -6.741999403203636e-09 2.1893029056307967e-10 2.2216696739196777 -0.7334870100021362 -0.2089199721813202 -2.5444436054650188e-14 1.0177774421860075e-13 1.2722218027325094e-13 -58.493595123291016 54.73249816894531 -18.681598663330078 27.9656982421875 -40.59270095825195 -84.98909759521484 1.3076398372650146 -30.627300262451172 4.772879600524902 -6.774708571910537e-10 9.629866681848398e-09 -2.4052306812905044e-09 -1.1118073128812966e-09 1.5839505707049284e-08 -4.1677479245549875e-09 -6.774835692446857e-10 9.629854247350522e-09 -2.4052306812905044e-09 -7.7309088706970215 5.474880218505859 -0.41731396317481995 -6.774708571910537e-10 9.629854247350522e-09 -2.4052306812905044e-09 -2.9055399894714355 0.9651829600334167 -0.10290198773145676 -6.774962812983176e-10 9.629854247350522e-09 -2.4052306812905044e-09 -10.27859878540039 0.73180091381073 -0.025912299752235413 -6.774708571910537e-10 9.629866681848398e-09 -2.4052371205840473e-09 -2.2216696739196777 -0.7334870100021362 0.2089199721813202 -0.0 0.0 -0.0 -45.85519790649414 -59.53390121459961 -41.98029708862305 -2.084669828414917 69.99979400634766 2.4445300102233887 2.0429999828338623 -4.59473991394043 11.988500595092773 -0.0 0.0 -0.0 10.817399024963379 2.1703999042510986 4.818239688873291 0.04151175171136856 45.10529708862305 -2.964050054550171 16.70549964904785 -23.962902069091797 37.91239547729492
-0.9860030578430293 33.21333163175026 6.02293234701065 3.8418002128601074 19.636600494384766 5.098699569702148 -11.521799087524414 10.61199951171875 0.6275759935379028 5.663849353790283 -8.412679672241211 0.3801659643650055 -7.774779319763184 16.732099533081055 -8.652809143066406 12.852700233459473 -25.496898651123047 -14.21349811553955 -0.0 0.0 -0.0 -0.0 0.0 -0.0 1.2722218027325094e-14 5.0888872109300376e-14 3.816665408197528e-13 43.679996490478516 30.236398696899414 13.870999336242676 -28.03729820251465 -30.840198516845703 68.59239959716797 -0.02743709273636341 -4.722700119018555 -0.6652539968490601 -1.319230391594317e-09 -2.3217283651177922e-09 -1.625129808502379e-09 -2.275864829925922e-09 -3.975566098546324e-09 -2.8129270024379593e-09 -1.319230391594317e-09 -2.3217157085753115e-09 -1.6251424650448598e-09 7.7309088706970215 5.474880218505859 0.41731396317481995 -1.319230391594317e-09 -2.3217283651177922e-09 -1.625117040937596e-09 2.9055399894714355 0.9651829600334167 0.10290198773145676 -1.319230391594317e-09 -2.3217283651177922e-09 -1.625117040937596e-09 10.27859878540039 0.73180091381073 0.025912299752235413 -1.3192431591591003e-09 -2.3217539002473586e-09 -1.6251107126663555e-09 2.2216696739196777 -0.7334870100021362 -0.2089199721813202 1.2722218027325094e-14 5.0888872109300376e-14 3.816665408197528e-13 -59.11949920654297 54.695194244384766 -18.105600357055664 27.971696853637695 -40.5609016418457 -84.93309783935547 1.3121898174285889 -30.674097061157227 4.781799793243408 -4.0765801845310534e-10 7.373695876111697e-09 -2.0158799074465605e-09 -6.55804910376645e-10 1.2071095234489349e-08 -3.4884575228488757e-09 -4.0765801845310534e-10 7.373695876111697e-09 -2.015892786033646e-09 -7.7309088706970215 5.474880218505859 -0.41731396317481995 -4.0765801845310534e-10 7.373682997524611e-09 -2.015892786033646e-09 -2.9055399894714355 0.9651829600334167 -0.10290198773145676 -4.076707582623129e-10 7.373682997524611e-09 -2.015892786033646e-09 -10.27859878540039 0.73180091381073 -0.025912299752235413 -4.076453063994734e-10 7.373695876111697e-09 -2.015892786033646e-09 -2.2216696739196777 -0.7334870100021362 0.2089199721813202 -0.0 0.0 -0.0 -46.139801025390625 -59.52059555053711 -42.302398681640625 -2.1303398609161377 70.28610229492188 2.4843599796295166 2.0795202255249023 -4.719759941101074 12.045097351074219 -0.0 0.0 -0.0 10.88479995727539 2.287919759750366 4.798539638519287 0.04033712297677994 45.12560272216797 -2.9725399017333984 16.732196807861328 -23.970598220825195 37.9650993347168
